<?xml version="1.0" standalone="no"?>
<!DOCTYPE svg PUBLIC "-//W3C//DTD SVG 20010904//EN"
 "http://www.w3.org/TR/2001/REC-SVG-20010904/DTD/svg10.dtd">
<svg version="1.0" xmlns="http://www.w3.org/2000/svg"
 width="500.000000pt" height="500.000000pt" viewBox="0 0 500.000000 500.000000"
 preserveAspectRatio="xMidYMid meet">

<g transform="translate(0.000000,500.000000) scale(0.100000,-0.100000)"
fill="#000000" stroke="none">
<path d="M2170 3271 c-102 -21 -184 -112 -197 -220 -10 -86 35 -180 107 -220
l40 -22 -30 -52 c-78 -139 -91 -324 -32 -451 57 -122 132 -192 262 -246 84
-35 87 -35 70 -15 -7 8 32 -7 86 -33 96 -45 102 -47 189 -47 87 0 94 2 189 48
54 26 93 41 86 32 -19 -23 -4 -19 89 26 265 129 353 401 217 672 l-34 67 26
14 c107 56 148 199 90 312 -47 90 -120 137 -213 138 -77 1 -136 -31 -172 -91
-14 -24 -27 -43 -29 -43 -3 0 -30 8 -62 19 -31 10 -79 21 -107 24 l-50 6 63
-24 c95 -37 230 -112 300 -168 66 -54 72 -61 45 -53 -10 2 -34 8 -53 12 l-35
7 56 -60 c30 -33 72 -85 92 -116 36 -54 81 -147 74 -153 -2 -2 -20 8 -40 21
l-36 25 32 -67 c27 -59 31 -79 31 -145 0 -68 -5 -86 -37 -150 -33 -68 -107
-157 -107 -130 0 7 -23 -6 -52 -29 -72 -57 -218 -128 -295 -144 -46 -10 -81
-11 -120 -5 -71 12 -268 106 -322 155 -22 20 -41 32 -41 24 0 -19 -48 29 -86
87 -72 112 -81 234 -26 345 26 53 26 58 8 44 -67 -48 -70 -42 -25 48 42 82 76
131 139 196 47 50 49 53 23 47 -80 -20 -81 -20 -28 28 55 50 224 147 319 183
34 13 48 21 31 19 -16 -3 -50 -8 -74 -12 -24 -3 -59 -13 -77 -20 -46 -19 -48
-19 -67 20 -18 39 -66 78 -116 95 -37 12 -48 12 -101 2z"/>
<path d="M3675 3271 c-111 -29 -186 -123 -187 -234 0 -96 34 -162 101 -197
l38 -19 -33 -68 c-84 -170 -84 -334 -1 -475 52 -90 170 -177 287 -213 23 -7
24 -6 11 9 -8 9 32 -6 89 -34 98 -47 108 -50 183 -50 75 0 84 3 179 50 56 28
95 43 87 34 -12 -15 -11 -16 11 -10 75 21 170 79 223 135 81 85 119 170 125
279 6 103 -9 174 -54 269 -38 80 -39 83 -22 83 27 0 82 56 105 108 21 44 25
64 20 108 -15 147 -157 259 -285 225 -50 -14 -119 -72 -128 -108 -7 -26 -6
-26 -84 2 -24 9 -67 18 -95 21 l-50 4 54 -20 c87 -32 261 -132 310 -177 l46
-43 -45 7 -45 6 45 -49 c70 -75 129 -168 161 -251 9 -25 9 -26 -13 -9 -57 40
-58 39 -30 -21 37 -81 42 -177 12 -255 -25 -68 -109 -185 -120 -168 -5 8 -17
2 -39 -18 -40 -36 -216 -124 -294 -147 -87 -25 -147 -14 -287 55 -64 32 -133
72 -154 90 -22 19 -36 27 -36 19 -1 -24 -88 80 -117 139 -24 49 -28 69 -28
142 0 73 4 92 27 138 30 57 26 64 -17 30 l-28 -22 7 30 c13 51 77 155 143 230
35 41 58 72 51 70 -7 -3 -29 -7 -48 -10 l-35 -5 50 45 c50 45 254 156 330 180
38 12 39 13 10 13 -28 1 -135 -26 -176 -43 -12 -5 -23 4 -42 36 -40 69 -135
109 -212 89z"/>
<path d="M790 3115 l0 -115 251 0 c228 0 251 -1 245 -16 -4 -9 -132 -220 -285
-468 -153 -248 -281 -457 -285 -463 -6 -10 98 -13 503 -13 l511 0 0 120 0 120
-274 2 -273 3 293 473 293 472 -490 0 -489 0 0 -115z"/>
<path d="M3930 2723 c-94 -47 -210 -210 -210 -295 0 -97 88 -156 175 -116 20
9 25 18 25 46 0 25 17 62 60 132 62 100 72 138 51 193 -11 29 -38 57 -54 57
-7 0 -28 -8 -47 -17z m38 -116 c6 -5 12 -21 11 -36 0 -14 -3 -20 -6 -13 -2 7
-14 17 -25 23 -16 9 -24 6 -44 -12 l-24 -22 0 26 c0 46 48 65 88 34z"/>
<path d="M4317 2722 c-21 -23 -37 -67 -37 -100 0 -15 27 -71 60 -126 44 -73
60 -109 60 -136 0 -32 4 -37 33 -48 47 -17 77 -15 114 8 41 25 56 53 55 107
-2 84 -90 217 -189 282 -53 35 -73 38 -96 13z m111 -114 c7 -7 12 -22 12 -35
l0 -23 -20 20 c-25 25 -34 25 -60 -2 l-20 -22 0 21 c0 43 59 70 88 41z"/>
<path d="M2399 2692 c-85 -54 -174 -184 -186 -270 -14 -102 73 -167 176 -131
27 10 31 15 31 48 0 28 15 63 60 137 67 111 75 154 40 212 -25 41 -60 42 -121
4z m63 -99 c10 -9 18 -24 18 -34 0 -17 -2 -17 -29 -1 -28 15 -31 15 -49 -1
-25 -23 -35 -21 -27 6 14 45 55 59 87 30z"/>
<path d="M2815 2700 c-11 -12 -20 -41 -23 -73 -4 -50 -1 -57 57 -152 47 -76
61 -108 61 -137 0 -32 4 -40 26 -48 63 -24 138 -4 164 46 37 68 -7 196 -99
292 -86 89 -148 114 -186 72z m117 -107 c10 -9 18 -28 18 -42 l0 -25 -16 22
c-18 26 -41 28 -66 5 -17 -15 -18 -15 -18 5 0 20 33 52 54 52 5 0 18 -7 28
-17z"/>
<path d="M4034 2335 c-8 -21 2 -33 35 -40 16 -3 39 -17 51 -31 27 -28 52 -31
71 -8 8 9 33 25 56 35 31 13 43 24 43 39 0 19 -6 20 -125 20 -101 0 -127 -3
-131 -15z"/>
<path d="M2530 2310 c0 -15 12 -26 43 -39 23 -10 48 -26 56 -35 7 -9 24 -16
36 -16 12 0 29 7 36 16 8 9 33 25 57 35 31 14 43 24 40 36 -3 16 -19 18 -136
21 -128 2 -132 2 -132 -18z"/>
<path d="M4125 2183 c-48 -33 -103 -40 -143 -19 -37 19 -42 8 -9 -21 30 -28
66 -35 113 -21 44 12 116 14 133 4 19 -12 89 -11 113 3 13 6 29 20 35 31 11
17 10 17 -27 3 -47 -19 -94 -12 -143 21 l-35 24 -37 -25z"/>
<path d="M2632 2160 c-40 -33 -95 -43 -138 -25 -48 20 -57 10 -20 -22 25 -22
36 -24 80 -19 65 7 158 8 216 1 35 -5 53 -1 78 14 17 12 32 25 32 31 0 12 3
13 -45 -4 -33 -12 -46 -12 -83 -1 -24 8 -52 21 -61 29 -22 20 -31 20 -59 -4z"/>
</g>
</svg>
